<?xml version="1.0" standalone="no"?>
<!DOCTYPE svg PUBLIC "-//W3C//DTD SVG 20010904//EN"
 "http://www.w3.org/TR/2001/REC-SVG-20010904/DTD/svg10.dtd">
<svg version="1.0" xmlns="http://www.w3.org/2000/svg"
 width="225.000000pt" height="225.000000pt" viewBox="0 0 225.000000 225.000000"
 preserveAspectRatio="xMidYMid meet">
<metadata>
Created by potrace 1.15, written by Peter Selinger 2001-2017
</metadata>
<g transform="translate(0.000000,225.000000) scale(0.100000,-0.100000)"
fill="#000000" stroke="none">
<path d="M1150 1997 c-11 -26 -24 -49 -29 -51 -10 -7 -8 -57 3 -74 4 -7 16
-12 27 -12 10 0 19 -6 19 -14 0 -16 -12 -21 -73 -32 -22 -4 -41 -14 -44 -23
-4 -9 -11 -22 -17 -30 -6 -7 -18 -34 -27 -60 l-16 -46 -156 -3 -157 -3 0 31
c0 28 -2 30 -40 30 -38 0 -40 -2 -40 -30 l0 -29 -77 -3 -78 -3 -3 -32 -3 -33
78 -2 78 -2 -75 -5 -75 -6 -3 -32 -3 -33 75 0 c44 0 76 -4 76 -10 0 -6 -30
-10 -70 -10 l-70 0 0 -30 0 -30 69 0 c39 0 73 -5 76 -10 4 -6 4 -24 0 -40 -6
-26 -11 -30 -38 -30 -49 0 -107 -19 -107 -35 0 -11 18 -15 73 -17 l72 -3 3
-99 c2 -77 -1 -109 -15 -142 -16 -39 -22 -44 -49 -44 -31 0 -60 -21 -47 -33 3
-4 22 -7 42 -7 27 0 32 -3 21 -10 -8 -5 -38 -10 -66 -10 -41 0 -55 -5 -74 -25
l-23 -25 49 0 c28 0 55 -5 61 -11 7 -7 28 -9 60 -4 26 4 138 9 247 10 154 3
204 0 220 -10 12 -7 41 -19 64 -25 31 -8 42 -15 38 -26 -3 -9 6 -20 26 -30 45
-23 136 -13 161 17 12 15 35 25 70 30 28 5 64 18 79 29 33 24 110 27 148 5 33
-19 104 -19 120 0 9 10 31 15 73 15 l60 0 -23 25 c-20 22 -32 25 -86 25 -35 0
-66 5 -69 10 -4 6 15 10 51 10 56 0 57 0 39 20 -13 15 -31 20 -64 20 -46 0
-47 0 -59 43 -8 25 -12 82 -10 142 l3 100 83 3 c63 2 82 6 82 17 0 15 -34 23
-115 27 l-50 3 0 40 0 40 83 3 82 3 0 29 0 30 -80 0 c-47 0 -80 4 -80 10 0 6
33 10 80 10 62 0 80 3 80 14 0 8 3 21 6 30 5 14 -6 16 -80 16 -51 0 -86 4 -86
10 0 6 35 10 86 10 l85 0 -3 33 -3 32 -85 1 -85 2 -3 31 c-3 29 -6 31 -43 31
-37 0 -39 -2 -39 -30 0 -30 -1 -30 -53 -30 -59 0 -63 3 -90 90 -13 41 -19 47
-74 70 -32 14 -64 29 -71 33 -17 11 -15 42 3 57 8 7 17 28 21 47 9 46 -23 79
-83 89 l-43 7 -20 -46z m-250 -581 c0 -3 -4 -16 -10 -30 -15 -39 -60 -57 -138
-54 -65 3 -67 4 -70 31 -6 55 -1 57 113 57 58 0 105 -2 105 -4z m129 -253 c-3
-163 -3 -163 -45 -163 l-33 0 -3 127 -3 128 -49 9 c-33 6 -61 5 -90 -4 -22 -7
-47 -14 -53 -16 -10 -2 -13 -36 -13 -124 0 -100 -2 -120 -15 -120 -9 0 -15 9
-15 24 0 14 -4 28 -10 31 -5 3 -10 46 -10 95 0 77 3 91 23 114 22 25 24 26
170 26 l149 0 -3 -127z m154 107 c21 -7 29 -5 34 6 15 39 51 4 73 -70 13 -43
20 -52 47 -59 34 -10 50 -42 31 -64 -6 -7 -7 -28 -4 -48 l7 -35 -141 0 c-124
0 -140 2 -132 15 5 9 3 40 -3 72 -10 48 -9 67 7 122 9 37 18 70 18 75 0 4 8 5
18 1 9 -4 30 -11 45 -15z m349 -7 c14 -13 18 -31 18 -93 0 -43 -3 -98 -6 -124
-7 -46 -7 -46 -45 -46 -37 0 -39 2 -39 30 0 17 -9 50 -21 73 -11 23 -31 72
-44 110 l-24 67 71 0 c52 0 76 -4 90 -17z"/>
</g>
</svg>
