<?xml version="1.0" standalone="no"?>
<!DOCTYPE svg PUBLIC "-//W3C//DTD SVG 20010904//EN"
 "http://www.w3.org/TR/2001/REC-SVG-20010904/DTD/svg10.dtd">
<svg version="1.0" xmlns="http://www.w3.org/2000/svg"
 width="225.000000pt" height="225.000000pt" viewBox="0 0 225.000000 225.000000"
 preserveAspectRatio="xMidYMid meet">
<metadata>
Created by potrace 1.15, written by Peter Selinger 2001-2017
</metadata>
<g transform="translate(0.000000,225.000000) scale(0.100000,-0.100000)"
fill="#000000" stroke="none">
<path d="M1041 1792 c-6 -2 -11 -10 -11 -18 0 -8 -4 -14 -9 -14 -17 0 -71 -52
-88 -84 -21 -40 -20 -138 1 -192 l17 -42 -55 -55 c-88 -87 -67 -123 43 -78
l45 18 -3 51 c-1 31 4 62 14 81 20 40 27 39 21 -1 -4 -19 18 -168 52 -356 55
-308 57 -322 37 -316 -11 4 -42 13 -68 20 -27 7 -59 20 -72 28 -57 37 -78 115
-51 180 19 47 1 45 -32 -4 -50 -74 -53 -177 -7 -255 29 -50 79 -89 225 -175
58 -34 118 -74 133 -88 l29 -27 -6 25 c-10 42 -146 817 -146 830 0 9 4 9 13 3
38 -30 128 -15 197 32 42 29 83 89 94 138 9 40 -10 103 -39 125 -29 23 -31 32
-10 32 19 0 19 4 1 38 -20 39 -55 68 -109 92 -38 17 -63 20 -126 18 -44 -2
-84 -4 -90 -6z"/>
</g>
</svg>
